
<svg xmlns="http://www.w3.org/2000/svg" viewBox="0 0 512 640" x="0px" y="0px"><path d="M448,144V64a8.00008,8.00008,0,0,0-8-8h-7.8623a40.17059,40.17059,0,0,0-38.46143,29.01172L385.96558,112H376V64a8.00008,8.00008,0,0,0-8-8H356.25049a40.17813,40.17813,0,0,0-36.14942,22.876L258.9375,208H160C80.59814,208,16,272.59766,16,352v96a8.00008,8.00008,0,0,0,8,8H64a7.99863,7.99863,0,0,0,6.9458-4.03125L100.64258,400h14.71521l29.69641,51.96875A7.99863,7.99863,0,0,0,152,456h40a8.00008,8.00008,0,0,0,8-8V400h48v48a8.00008,8.00008,0,0,0,8,8h40a8.00072,8.00072,0,0,0,6.85986-3.88379l33.96094-56.60156a7.98915,7.98915,0,0,0,.93213,1.4834l32,40A8.00055,8.00055,0,0,0,376,440h24a8.00008,8.00008,0,0,0,8-8V362.11816a83.99267,83.99267,0,0,0-10.18188-40.0581A167.19086,167.19086,0,0,0,423.78845,240H448a48,48,0,0,0,0-96ZM409.06055,89.40723A24.106,24.106,0,0,1,432,72v52.31934a50.131,50.131,0,0,0-29.43115-12.18995ZM160,224H264a8.0001,8.0001,0,0,0,7.23-4.5752L334.561,85.72559A24.10658,24.10658,0,0,1,356.25049,72H360v40H336v16h56v27.8916A28.14014,28.14014,0,0,1,363.89209,184,44.03,44.03,0,0,0,320,228.06836v.90332a86.083,86.083,0,0,0,28.876,64.29492l20.30713,18.04785a68.02011,68.02011,0,0,1,22.65454,46.36231A45.79091,45.79091,0,0,1,355.15576,376H352v-8a8.00055,8.00055,0,0,0-4.64746-7.26367L279.6709,329.499A54.679,54.679,0,0,1,248,280H232a70.68116,70.68116,0,0,0,18.90479,48H104a7.99927,7.99927,0,0,0-6.3999,3.2002L68.80029,369.60059A56.298,56.298,0,0,1,32,391.394V352A128.14509,128.14509,0,0,1,160,224ZM96,384a7.99863,7.99863,0,0,0-6.9458,4.03125L59.35742,440H32V407.543A72.39911,72.39911,0,0,0,81.6001,379.2002L108,344H272.91138c.01831.0083.03613.01807.05444.02637l51.44592,23.74414A151.58215,151.58215,0,0,1,256,384Zm88,56H156.64258l-22.85742-40H184Zm107.4707,0H264V399.78809a167.42614,167.42614,0,0,0,60.11975-14.20362Zm88.37451-16-25.59985-32h.9104A61.78235,61.78235,0,0,0,392,379.85156V424ZM448,224h-.022a39.7803,39.7803,0,0,0,7.97143-22.0105l7.20581-14.41138A8,8,0,0,0,456,176H440a8,8,0,0,0-7.15527,11.57812l7.08471,14.16944A24.02662,24.02662,0,0,1,416,224H392v16h15.76758a151.23131,151.23131,0,0,1-19.89185,67.58691,83.83151,83.83151,0,0,0-8.06372-8.23144l-20.30713-18.04785A70.07031,70.07031,0,0,1,336,228.97168v-.90332A28.0125,28.0125,0,0,1,363.89209,200,44.15815,44.15815,0,0,0,408,155.8916V129.197a34.19108,34.19108,0,0,1,24.23877,24.74341A8.00005,8.00005,0,0,0,440,160h8a32,32,0,0,1,0,64Z"/><circle cx="368" cy="152" r="8"/><text x="0" y="527" fill="#000000" font-size="5px" font-weight="bold" font-family="'Helvetica Neue', Helvetica, Arial-Unicode, Arial, Sans-serif">Created by ArmOkay</text><text x="0" y="532" fill="#000000" font-size="5px" font-weight="bold" font-family="'Helvetica Neue', Helvetica, Arial-Unicode, Arial, Sans-serif">from the Noun Project</text></svg>