<?xml version="1.0" encoding="utf-8"?>
<!-- Generator: Adobe Illustrator 24.2.1, SVG Export Plug-In . SVG Version: 6.00 Build 0)  -->
<svg version="1.1" xmlns="http://www.w3.org/2000/svg" xmlns:xlink="http://www.w3.org/1999/xlink" x="0px" y="0px"
	 viewBox="0 0 479 512" style="enable-background:new 0 0 479 512;" xml:space="preserve">
<style type="text/css">
	.st0{fill:#0DDAC7;}
	.st1{fill:#EF7E1E;}
	.st2{fill:#FFF1BD;}
	.st3{fill:none;stroke:#000000;stroke-width:2;stroke-miterlimit:10;}
	.st4{fill:#EF7E1E;stroke:#0DDAC7;stroke-width:8;stroke-miterlimit:10;}
	.st5{fill:#EF7E1E;stroke:#000000;stroke-width:8;stroke-miterlimit:10;}
	.st6{fill:#EF7E1E;stroke:#000000;stroke-width:9;stroke-miterlimit:10;}
	.st7{fill:none;stroke:#FFF1BD;stroke-width:8;stroke-linecap:round;stroke-miterlimit:10;}
	.st8{fill:#FFFFFF;}
	.st9{fill:#FFFFFF;stroke:#FFFFFF;stroke-miterlimit:10;}
	.st10{fill:none;stroke:#FFFFFF;stroke-width:11;stroke-miterlimit:10;}
	.st11{fill:none;stroke:#000000;stroke-width:11;stroke-miterlimit:10;}
	.st12{fill:none;stroke:#FFF1BD;stroke-width:8;stroke-miterlimit:10;}
	.st13{fill:none;stroke:#000000;stroke-width:8;stroke-miterlimit:10;}
	.st14{fill:none;stroke:#0DDAC7;stroke-width:8;stroke-miterlimit:10;}
	.st15{fill:none;stroke:#FFF1BD;stroke-width:9;stroke-linecap:round;stroke-miterlimit:10;}
	.st16{fill:#EF7E1E;stroke:#000000;stroke-width:10;stroke-miterlimit:10;}
	.st17{display:none;}
	.st18{display:inline;opacity:0.11;}
</style>
<g id="Layer_2">
	<g>
		<path class="st0" d="M441,276c-5.39,23.58-15.55,47.62-30.4,69.12C381.38,387.46,333.99,420,269,420c-98,0-156,0-156,0l-33,57H29
			c0,0-5.26-26.5-5.06-62.31C24.33,340.07,48.39,225,193,225h55.11c4.32,0,5.89,0,5.89,0l2.13-6H228.5c-1.06,0-2.11-0.03-3.15-0.1
			c-26.97-1.62-48.35-24.02-48.35-51.4c0-28.44,23.06-51.5,51.5-51.5c0.17,0,0.34,0,0.51,0.01c1.25,0,2.49,0.06,3.72,0.16
			c0.01-0.03,0.03-0.07,0.04-0.1c0.23-0.6,0.46-1.19,0.7-1.77c0.25-0.62,0.51-1.24,0.77-1.84c0.26-0.61,0.53-1.21,0.81-1.81
			c0.25-0.55,0.51-1.1,0.77-1.63c0.04-0.09,0.09-0.18,0.13-0.26c0.17-0.35,0.34-0.69,0.52-1.02c0.17-0.36,0.36-0.72,0.56-1.07
			c0.25-0.49,0.51-0.97,0.79-1.44c0.15-0.29,0.32-0.58,0.49-0.86c0.21-0.37,0.43-0.74,0.65-1.1c0.27-0.44,0.54-0.88,0.82-1.3
			c0.2-0.33,0.41-0.65,0.63-0.96c0.18-0.27,0.36-0.54,0.55-0.81c0.19-0.29,0.39-0.57,0.6-0.84c0.1-0.15,0.2-0.29,0.31-0.43
			c0.26-0.36,0.52-0.71,0.79-1.05c0.19-0.24,0.37-0.48,0.56-0.71c0.13-0.17,0.27-0.33,0.41-0.5c0.29-0.36,0.58-0.71,0.89-1.05
			c0.09-0.12,0.19-0.23,0.3-0.35c0.32-0.36,0.64-0.71,0.98-1.06c0.06-0.08,0.13-0.16,0.22-0.24c0.32-0.35,0.65-0.69,1.01-1.02
			c0.14-0.15,0.28-0.29,0.42-0.41c0.22-0.23,0.44-0.44,0.66-0.63c0.32-0.31,0.64-0.6,0.97-0.88c1.13-0.98,2.31-1.9,3.53-2.75
			c0.24-0.17,0.49-0.34,0.74-0.5c0.61-0.41,1.24-0.8,1.87-1.17c0.23-0.14,0.46-0.27,0.7-0.4c0.35-0.2,0.71-0.39,1.07-0.58
			c0.22-0.12,0.44-0.23,0.67-0.34c0.27-0.14,0.55-0.27,0.84-0.4c0.25-0.12,0.51-0.24,0.78-0.36c0.59-0.26,1.2-0.51,1.81-0.74
			c0.28-0.11,0.57-0.22,0.86-0.32c0.31-0.11,0.62-0.22,0.94-0.32c0.23-0.08,0.46-0.15,0.7-0.22c1.06-0.33,2.15-0.62,3.27-0.87
			c0.54-0.12,1.09-0.23,1.65-0.32c0.09-0.02,0.18-0.04,0.27-0.05c0.32-0.06,0.65-0.11,0.98-0.16c1.41-0.22,2.87-0.37,4.36-0.45
			c0.45-0.02,0.91-0.04,1.38-0.06c0.11,0,0.22-0.01,0.33-0.01C276.22,81,276.61,81,277,81h29V30c0-4.5,3.29-9.69,9.12-10.31
			c1.99-0.21,4.24-0.3,6.68-0.19c0,0,24.2-2.5,38.2,16.5S457,206,441,276z"/>
		<path class="st1" d="M39,480c0,0-5.26-26.5-5.06-62.31C34.33,343.07,58.39,228,203,228h55.11c4.32,0,5.89,0,5.89,0l2.13-6H238.5
			c-1.06,0-2.11-0.03-3.15-0.1c-26.97-1.62-48.35-24.02-48.35-51.4c0-28.44,23.06-51.5,51.5-51.5c0.17,0,0.34,0,0.51,0.01
			c1.25,0,2.49,0.06,3.72,0.16c0.01-0.03,0.03-0.07,0.04-0.1c0.23-0.6,0.46-1.19,0.7-1.77c0.25-0.62,0.51-1.24,0.77-1.84
			c0.26-0.61,0.53-1.21,0.81-1.81c0.25-0.55,0.51-1.1,0.77-1.63c0.04-0.09,0.09-0.18,0.13-0.26c0.17-0.35,0.34-0.69,0.52-1.02
			c0.17-0.36,0.36-0.72,0.56-1.07c0.25-0.49,0.51-0.97,0.79-1.44c0.15-0.29,0.32-0.58,0.49-0.86c0.21-0.37,0.43-0.74,0.65-1.1
			c0.27-0.44,0.54-0.88,0.82-1.3c0.2-0.33,0.41-0.65,0.63-0.96c0.18-0.27,0.36-0.54,0.55-0.81c0.19-0.29,0.39-0.57,0.6-0.84
			c0.1-0.15,0.2-0.29,0.31-0.43c0.26-0.36,0.52-0.71,0.79-1.05c0.19-0.24,0.37-0.48,0.56-0.71c0.13-0.17,0.27-0.33,0.41-0.5
			c0.29-0.36,0.58-0.71,0.89-1.05c0.09-0.12,0.19-0.23,0.3-0.35c0.32-0.36,0.64-0.71,0.98-1.06c0.06-0.08,0.13-0.16,0.22-0.24
			c0.32-0.35,0.65-0.69,1.01-1.02c0.14-0.15,0.28-0.29,0.42-0.41c0.22-0.23,0.44-0.44,0.66-0.63c0.32-0.31,0.64-0.6,0.97-0.88
			c1.13-0.98,2.31-1.9,3.53-2.75c0.24-0.17,0.49-0.34,0.74-0.5c0.61-0.41,1.24-0.8,1.87-1.17c0.23-0.14,0.46-0.27,0.7-0.4
			c0.35-0.2,0.71-0.39,1.07-0.58c0.22-0.12,0.44-0.23,0.67-0.34c0.27-0.14,0.55-0.27,0.84-0.4c0.25-0.12,0.51-0.24,0.78-0.36
			c0.59-0.26,1.2-0.51,1.81-0.74c0.28-0.11,0.57-0.22,0.86-0.32c0.31-0.11,0.62-0.22,0.94-0.32c0.23-0.08,0.46-0.15,0.7-0.22
			c1.06-0.33,2.15-0.62,3.27-0.87c0.54-0.12,1.09-0.23,1.65-0.32c0.09-0.02,0.18-0.04,0.27-0.05c0.32-0.06,0.65-0.11,0.98-0.16
			c1.41-0.22,2.87-0.37,4.36-0.45c0.45-0.02,0.91-0.04,1.38-0.06c0.11,0,0.22-0.01,0.33-0.01C286.22,84,286.61,84,287,84h29V33
			c0-4.5,3.29-9.69,9.12-10.31c1.99-0.21,4.24-0.3,6.68-0.19c0,0,24.2-2.5,38.2,16.5s97,170,81,240
			c-5.39,23.58-15.55,47.62-30.4,69.12C391.38,390.46,343.99,423,279,423c-98,0-156,0-156,0l-33,57"/>
		<g>
			<polygon class="st4" points="122,403 165,475 209,475 214,403 			"/>
			<polygon class="st4" points="371,379 310.07,479 265.11,479 260,407 			"/>
		</g>
		<polygon class="st5" points="132,403 175,475 219,475 224,403 		"/>
		<polygon class="st5" points="381,379 320.07,479 275.11,479 270,407 		"/>
		<path class="st0" d="M263.36,137l-39.35-21.38c-0.01-0.01-0.01-0.01-0.01-0.01s0-55.62,0-73.58c0-3.85,2.82-8.29,7.8-8.82
			c13.59-1.45,41.82,3.69,47.81,52.46L263.36,137z"/>
		<path class="st6" d="M276.36,142l-39.35-21.38c-0.01-0.01-0.01-0.01-0.01-0.01s0-55.62,0-73.58c0-3.85,2.82-8.29,7.8-8.82
			c13.59-1.45,38.21,4.03,44.2,52.8L276.36,142z"/>
		<path class="st7" d="M250.5,91V58.39c0-1.57,1.93-2.31,2.98-1.15C260.31,64.8,276.5,83.5,276.5,91"/>
		<path class="st2" d="M54.37,415.43C79,414,101.47,395.41,124,351l296.6-2.88C391.38,390.46,343.99,423,279,423c-98,0-156,0-156,0
			l-33,57H39"/>
		<path class="st2" d="M360,268.5L260,233c4.32,0,6.5-4,6.5-4l2.13-6H241c-1.06,0-2.11-0.03-3.15-0.1
			c-26.97-1.62-48.35-24.02-48.35-51.4c0-28.44,23.06-51.5,51.5-51.5c0.17,0,0.34,0,0.51,0.01c1.25,0,2.49,0.06,3.72,0.16
			c0.01-0.03,0.03-0.07,0.04-0.1c0.23-0.6,0.46-1.19,0.7-1.77c0.25-0.62,0.51-1.24,0.77-1.84c0.26-0.61,0.53-1.21,0.81-1.81
			c0.25-0.55,0.51-1.1,0.77-1.63c0.04-0.09,0.09-0.18,0.13-0.26c0.17-0.35,0.34-0.69,0.52-1.02c0.17-0.36,0.36-0.72,0.56-1.07
			c0.25-0.49,0.51-0.97,0.79-1.44c0.15-0.29,0.32-0.58,0.49-0.86c0.21-0.37,0.43-0.74,0.65-1.1c0.27-0.44,0.54-0.88,0.82-1.3
			c0.2-0.33,0.41-0.65,0.63-0.96c0.18-0.27,0.36-0.54,0.55-0.81c0.19-0.29,0.39-0.57,0.6-0.84c0.1-0.15,0.2-0.29,0.31-0.43
			c0.26-0.36,0.52-0.71,0.79-1.05c0.19-0.24,0.37-0.48,0.56-0.71c0.13-0.17,0.27-0.33,0.41-0.5c0.29-0.36,0.58-0.71,0.89-1.05
			c0.09-0.12,0.19-0.23,0.3-0.35c0.32-0.36,0.64-0.71,0.98-1.06c0.06-0.08,0.13-0.16,0.22-0.24c0.32-0.35,0.65-0.69,1.01-1.02
			c0.14-0.15,0.28-0.29,0.42-0.41c0.22-0.23,0.44-0.44,0.66-0.63c0.32-0.31,0.64-0.6,0.97-0.88c1.13-0.98,2.31-1.9,3.53-2.75
			c0.24-0.17,0.49-0.34,0.74-0.5c0.61-0.41,1.24-0.8,1.87-1.17c0.23-0.14,0.46-0.27,0.7-0.4c0.35-0.2,0.71-0.39,1.07-0.58
			c0.22-0.12,0.44-0.23,0.67-0.34c0.27-0.14,0.55-0.27,0.84-0.4c0.25-0.12,0.51-0.24,0.78-0.36c0.59-0.26,1.2-0.51,1.81-0.74
			c0.28-0.11,0.57-0.22,0.86-0.32c0.31-0.11,0.62-0.22,0.94-0.32c0.23-0.08,0.46-0.15,0.7-0.22c1.06-0.33,2.15-0.62,3.27-0.87
			c0.54-0.12,1.09-0.23,1.65-0.32c0.09-0.02,0.18-0.04,0.27-0.05c0.32-0.06,0.65-0.11,0.98-0.16c1.41-0.22,2.87-0.37,4.36-0.45
			c0.45-0.02,0.91-0.04,1.38-0.06v44.48c0,34,17,43,56,43S374,252.5,360,268.5z"/>
		<g>
			<circle cx="328.5" cy="128.5" r="12.5"/>
		</g>
		<circle class="st0" cx="325.5" cy="126.5" r="7.5"/>
		<circle class="st8" cx="324" cy="125" r="5"/>
		<g>
			<path class="st9" d="M251.51,180l-16.01,0.5c-6-2-9-9-10-15c0-6,3.77-9.5,8.99-9.5h17.03c5.22,0,9.49,4.27,9.49,9.49
				C261,165.49,256.73,180,251.51,180z"/>
			<path class="st10" d="M243.5,178.5c0,23,17,37,48,37c34,0,30-27,30-27"/>
		</g>
		<path d="M245.51,178l-16.01,0.5c-6-2-9-9-10-15c0-6,3.77-9.5,8.99-9.5h17.03c5.22,0,9.49,4.27,9.49,9.49
			C255,163.49,250.73,178,245.51,178z"/>
		<g>
			<path class="st8" d="M343.64,35.39L343.64,35.39c5.28,0,18.43,1.18,26.5,12.13c6.02,8.16,29.86,49.48,50.46,98.6
				c11.37,27.1,19.7,51.68,24.75,73.04c5.9,24.95,7.22,44.92,3.92,59.38c-8.16,35.68-26.66,68.61-52.09,92.72
				c-14.07,13.34-30.02,23.74-47.41,30.91C330.75,410.02,309.97,414,288,414H132h-6.34l-3.18,5.49L92.66,471H57.37
				c-4.11-29.14-12.84-123.38,34.86-181.47c12.34-15.03,27.8-26.71,45.96-34.73c20.74-9.16,45.58-13.8,73.82-13.8h55.11H273h7.77
				l2.6-7.32l2.13-6l5.21-14.68h-15.58H247.5c-0.87,0-1.66-0.02-2.41-0.08l-0.04,0l-0.04,0C223.7,211.64,207,193.89,207,172.5
				c0-22.33,18.17-40.5,40.5-40.5l0.02,0l0.17,0.01h0.32c0.88,0,1.8,0.04,2.83,0.12l8.6,0.7l2.64-7.92
				c0.18-0.48,0.37-0.95,0.56-1.41l0.02-0.05l0.02-0.05c0.21-0.53,0.44-1.06,0.66-1.58l0.01-0.03l0.01-0.03
				c0.2-0.46,0.41-0.94,0.66-1.47l0.02-0.05l0.02-0.05c0.21-0.45,0.42-0.9,0.63-1.34l0.04-0.08l0.05-0.1l0.03-0.06l0.03-0.06
				c0.09-0.19,0.18-0.38,0.28-0.56l0.15-0.28l0.14-0.29c0.02-0.05,0.07-0.15,0.16-0.31l0.13-0.23l0.12-0.23
				c0.16-0.32,0.31-0.58,0.44-0.81l0.16-0.26l0.15-0.29c0.04-0.08,0.09-0.15,0.13-0.23l0.08-0.14l0.08-0.14
				c0.15-0.27,0.31-0.53,0.46-0.78c0.2-0.32,0.39-0.64,0.6-0.95l0.13-0.2l0.12-0.2c0.06-0.1,0.13-0.2,0.19-0.3l0.09-0.13l0.09-0.13
				c0.13-0.19,0.26-0.39,0.39-0.58l0.11-0.15l0.1-0.15c0.03-0.04,0.05-0.08,0.08-0.11l0.25-0.32l0.14-0.21l0.03-0.03l0.13-0.18
				c0.16-0.22,0.32-0.44,0.5-0.66l0.27-0.34c0.05-0.07,0.1-0.13,0.15-0.19l0.13-0.16l0.06-0.08l0.03-0.04l0.2-0.23l0.04-0.05
				l0.04-0.05c0.14-0.17,0.32-0.39,0.45-0.54l0.36-0.39l0.1-0.13c0.19-0.21,0.38-0.42,0.59-0.63l0.04-0.04l0.03-0.03l0.06-0.07
				l0.36-0.37l0.09-0.12c0.08-0.08,0.14-0.15,0.2-0.2l0.32-0.29l0.11-0.12l0.14-0.12l0.34-0.36l0.17-0.15l0.23-0.22
				c0.14-0.14,0.29-0.27,0.43-0.39l0.05-0.04l0.04-0.04c0.84-0.73,1.72-1.41,2.61-2.03l0.04-0.02l0.03-0.02
				c0.1-0.07,0.21-0.14,0.31-0.21l0.1-0.07l0.1-0.07c0.38-0.25,0.82-0.53,1.3-0.81l0.07-0.04l0.07-0.05
				c0.07-0.04,0.14-0.08,0.22-0.12l0.11-0.06l0.11-0.06c0.24-0.14,0.5-0.27,0.75-0.4l0.07-0.04l0.07-0.04
				c0.05-0.03,0.1-0.05,0.15-0.07l0.16-0.08l0.16-0.08c0.09-0.05,0.18-0.09,0.28-0.13l0.13-0.06l0.13-0.06
				c0.16-0.08,0.32-0.15,0.46-0.21c0.42-0.18,0.84-0.36,1.26-0.51l0.07-0.03l0.07-0.03c0.14-0.05,0.28-0.11,0.42-0.16l0.05-0.02
				l0.05-0.02c0.18-0.06,0.36-0.13,0.54-0.19l0.15-0.05l0.17-0.06c0.06-0.02,0.12-0.04,0.18-0.05l0.1-0.03l0.09-0.03
				c0.77-0.24,1.57-0.45,2.39-0.63c0.39-0.09,0.72-0.15,1.01-0.2l0.12-0.02l0.02,0l0.06-0.01l0.14-0.02l0.09-0.02l0.12-0.02
				c0.2-0.04,0.4-0.07,0.65-0.1c1.02-0.16,2.09-0.27,3.2-0.33l1.2-0.05c0.07,0,0.15,0,0.23-0.01l0.03,0
				c0.23-0.01,0.45-0.01,0.68-0.01c0.07,0,0.14,0,0.21,0h25h11V86V37.16c0.92-0.7,2.37-1.43,3.27-1.53
				c1.11-0.12,2.27-0.18,3.44-0.18c0.53,0,1.06,0.01,1.59,0.04l0.74,0.06l0.85-0.1C342.05,35.43,342.67,35.39,343.64,35.39
				 M343.64,24.39c-1.79,0-2.84,0.11-2.84,0.11c-0.71-0.03-1.41-0.05-2.09-0.05c-1.64,0-3.18,0.09-4.59,0.24
				C328.29,25.31,321,30.5,321,35v51h-25c-0.39,0-0.78,0-1.17,0.01c-0.11,0-0.22,0.01-0.33,0.01c-0.47,0.02-0.93,0.04-1.38,0.06
				c-1.49,0.08-2.95,0.23-4.36,0.45c-0.33,0.05-0.66,0.1-0.98,0.16c-0.09,0.01-0.18,0.03-0.27,0.05c-0.56,0.09-1.11,0.2-1.65,0.32
				c-1.12,0.25-2.21,0.54-3.27,0.87c-0.24,0.07-0.47,0.14-0.7,0.22c-0.32,0.1-0.63,0.21-0.94,0.32c-0.29,0.1-0.58,0.21-0.86,0.32
				c-0.61,0.23-1.22,0.48-1.81,0.74c-0.27,0.12-0.53,0.24-0.78,0.36c-0.29,0.13-0.57,0.26-0.84,0.4c-0.23,0.11-0.45,0.22-0.67,0.34
				c-0.36,0.19-0.72,0.38-1.07,0.58c-0.24,0.13-0.47,0.26-0.7,0.4c-0.63,0.37-1.26,0.76-1.87,1.17c-0.25,0.16-0.5,0.33-0.74,0.5
				c-1.22,0.85-2.4,1.77-3.53,2.75c-0.33,0.28-0.65,0.57-0.97,0.88c-0.22,0.19-0.44,0.4-0.66,0.63c-0.14,0.12-0.28,0.26-0.42,0.41
				c-0.36,0.33-0.69,0.67-1.01,1.02c-0.09,0.08-0.16,0.16-0.22,0.24c-0.34,0.35-0.66,0.7-0.98,1.06c-0.11,0.12-0.21,0.23-0.3,0.35
				c-0.31,0.34-0.6,0.69-0.89,1.05c-0.14,0.17-0.28,0.33-0.41,0.5c-0.19,0.23-0.37,0.47-0.56,0.71c-0.27,0.34-0.53,0.69-0.79,1.05
				c-0.11,0.14-0.21,0.28-0.31,0.43c-0.21,0.27-0.41,0.55-0.6,0.84c-0.19,0.27-0.37,0.54-0.55,0.81c-0.22,0.31-0.43,0.63-0.63,0.96
				c-0.28,0.42-0.55,0.86-0.82,1.3c-0.22,0.36-0.44,0.73-0.65,1.1c-0.17,0.28-0.34,0.57-0.49,0.86c-0.28,0.47-0.54,0.95-0.79,1.44
				c-0.2,0.35-0.39,0.71-0.56,1.07c-0.18,0.33-0.35,0.67-0.52,1.02c-0.04,0.08-0.09,0.17-0.13,0.26c-0.26,0.53-0.52,1.08-0.77,1.63
				c-0.28,0.6-0.55,1.2-0.81,1.81c-0.26,0.6-0.52,1.22-0.77,1.84c-0.24,0.58-0.47,1.17-0.7,1.77c-0.01,0.03-0.03,0.07-0.04,0.1
				c-1.23-0.1-2.47-0.16-3.72-0.16c-0.17-0.01-0.34-0.01-0.51-0.01c-28.44,0-51.5,23.06-51.5,51.5c0,27.38,21.38,49.78,48.35,51.4
				c1.04,0.07,2.09,0.1,3.15,0.1h27.63l-2.13,6c0,0-1.57,0-5.89,0H212C-2,230,48,482,48,482h51l33-57c0,0,58,0,156,0s156-74,172-144
				S393,60,379,41C367.92,25.96,350.44,24.39,343.64,24.39L343.64,24.39z"/>
		</g>
		<g>
			<path d="M334.64,33.39L334.64,33.39c5.28,0,18.43,1.18,26.5,12.13c6.02,8.16,29.86,49.48,50.46,98.6
				c11.37,27.1,19.7,51.68,24.75,73.04c5.9,24.95,7.22,44.92,3.92,59.38c-8.16,35.68-26.66,68.61-52.09,92.72
				c-14.07,13.34-30.02,23.74-47.41,30.91C321.75,408.02,300.97,412,279,412H123h-6.34l-3.18,5.49L83.66,469H48.37
				c-4.11-29.14-12.84-123.38,34.86-181.47c12.34-15.03,27.8-26.71,45.96-34.73c20.74-9.16,45.58-13.8,73.82-13.8h55.11H264h7.77
				l2.6-7.32l2.13-6l5.21-14.68h-15.58H238.5c-0.87,0-1.66-0.02-2.41-0.08l-0.04,0l-0.04,0C214.7,209.64,198,191.89,198,170.5
				c0-22.33,18.17-40.5,40.5-40.5l0.02,0l0.17,0.01h0.32c0.88,0,1.8,0.04,2.83,0.12l8.6,0.7l2.64-7.92
				c0.18-0.48,0.37-0.95,0.56-1.41l0.02-0.05l0.02-0.05c0.21-0.53,0.44-1.06,0.66-1.58l0.01-0.03l0.01-0.03
				c0.2-0.46,0.41-0.94,0.66-1.47l0.02-0.05l0.02-0.05c0.21-0.45,0.42-0.9,0.63-1.34l0.04-0.08l0.05-0.1l0.03-0.06l0.03-0.06
				c0.09-0.19,0.18-0.38,0.28-0.56l0.15-0.28l0.14-0.29c0.02-0.05,0.07-0.15,0.16-0.31l0.13-0.23l0.12-0.23
				c0.16-0.32,0.31-0.58,0.44-0.81l0.16-0.26l0.15-0.29c0.04-0.08,0.09-0.15,0.13-0.23l0.08-0.14l0.08-0.14
				c0.15-0.27,0.31-0.53,0.46-0.78c0.2-0.32,0.39-0.64,0.6-0.95l0.13-0.2l0.12-0.2c0.06-0.1,0.13-0.2,0.19-0.3l0.09-0.13l0.09-0.13
				c0.13-0.19,0.26-0.39,0.39-0.58l0.11-0.15l0.1-0.15c0.03-0.04,0.05-0.08,0.08-0.11l0.25-0.32l0.14-0.21l0.03-0.03l0.13-0.18
				c0.16-0.22,0.32-0.44,0.5-0.66l0.27-0.34c0.05-0.07,0.1-0.13,0.15-0.19l0.13-0.16l0.06-0.08l0.03-0.04l0.2-0.23l0.04-0.05
				l0.04-0.05c0.14-0.17,0.32-0.39,0.45-0.54l0.36-0.39l0.1-0.13c0.19-0.21,0.38-0.42,0.59-0.63l0.04-0.04l0.03-0.03l0.06-0.07
				l0.36-0.37l0.09-0.12c0.08-0.08,0.14-0.15,0.2-0.2l0.32-0.29l0.11-0.12l0.14-0.12l0.34-0.36l0.17-0.15l0.23-0.22
				c0.14-0.14,0.29-0.27,0.43-0.39l0.05-0.04l0.04-0.04c0.84-0.73,1.72-1.41,2.61-2.03l0.04-0.02l0.03-0.02
				c0.1-0.07,0.21-0.14,0.31-0.21l0.1-0.07l0.1-0.07c0.38-0.25,0.82-0.53,1.3-0.81l0.07-0.04l0.07-0.05
				c0.07-0.04,0.14-0.08,0.22-0.12l0.11-0.06l0.11-0.06c0.24-0.14,0.5-0.27,0.75-0.4l0.07-0.04l0.07-0.04
				c0.05-0.03,0.1-0.05,0.15-0.07l0.16-0.08l0.16-0.08c0.09-0.05,0.18-0.09,0.28-0.13l0.13-0.06l0.13-0.06
				c0.16-0.08,0.32-0.15,0.46-0.21c0.42-0.18,0.84-0.36,1.26-0.51l0.07-0.03l0.07-0.03c0.14-0.05,0.28-0.11,0.42-0.16l0.05-0.02
				l0.05-0.02c0.18-0.06,0.36-0.13,0.54-0.19l0.15-0.05l0.17-0.06c0.06-0.02,0.12-0.04,0.18-0.05l0.1-0.03l0.09-0.03
				c0.77-0.24,1.57-0.45,2.39-0.63c0.39-0.09,0.72-0.15,1.01-0.2l0.12-0.02l0.02,0l0.06-0.01l0.14-0.02l0.09-0.02l0.12-0.02
				c0.2-0.04,0.4-0.07,0.65-0.1c1.02-0.16,2.09-0.27,3.2-0.33l1.2-0.05c0.07,0,0.15,0,0.23-0.01l0.03,0
				c0.23-0.01,0.45-0.01,0.68-0.01c0.07,0,0.14,0,0.21,0h29h11V84V33.56c0.88-0.07,1.79-0.11,2.71-0.11c0.53,0,1.06,0.01,1.59,0.04
				l0.74,0.06l0.85-0.1C333.05,33.43,333.67,33.39,334.64,33.39 M334.64,22.39c-1.79,0-2.84,0.11-2.84,0.11
				c-0.71-0.03-1.41-0.05-2.09-0.05c-1.64,0-3.18,0.09-4.59,0.24C319.29,23.31,316,28.5,316,33v51h-29c-0.39,0-0.78,0-1.17,0.01
				c-0.11,0-0.22,0.01-0.33,0.01c-0.47,0.02-0.93,0.04-1.38,0.06c-1.49,0.08-2.95,0.23-4.36,0.45c-0.33,0.05-0.66,0.1-0.98,0.16
				c-0.09,0.01-0.18,0.03-0.27,0.05c-0.56,0.09-1.11,0.2-1.65,0.32c-1.12,0.25-2.21,0.54-3.27,0.87c-0.24,0.07-0.47,0.14-0.7,0.22
				c-0.32,0.1-0.63,0.21-0.94,0.32c-0.29,0.1-0.58,0.21-0.86,0.32c-0.61,0.23-1.22,0.48-1.81,0.74c-0.27,0.12-0.53,0.24-0.78,0.36
				c-0.29,0.13-0.57,0.26-0.84,0.4c-0.23,0.11-0.45,0.22-0.67,0.34c-0.36,0.19-0.72,0.38-1.07,0.58c-0.24,0.13-0.47,0.26-0.7,0.4
				c-0.63,0.37-1.26,0.76-1.87,1.17c-0.25,0.16-0.5,0.33-0.74,0.5c-1.22,0.85-2.4,1.77-3.53,2.75c-0.33,0.28-0.65,0.57-0.97,0.88
				c-0.22,0.19-0.44,0.4-0.66,0.63c-0.14,0.12-0.28,0.26-0.42,0.41c-0.36,0.33-0.69,0.67-1.01,1.02c-0.09,0.08-0.16,0.16-0.22,0.24
				c-0.34,0.35-0.66,0.7-0.98,1.06c-0.11,0.12-0.21,0.23-0.3,0.35c-0.31,0.34-0.6,0.69-0.89,1.05c-0.14,0.17-0.28,0.33-0.41,0.5
				c-0.19,0.23-0.37,0.47-0.56,0.71c-0.27,0.34-0.53,0.69-0.79,1.05c-0.11,0.14-0.21,0.28-0.31,0.43c-0.21,0.27-0.41,0.55-0.6,0.84
				c-0.19,0.27-0.37,0.54-0.55,0.81c-0.22,0.31-0.43,0.63-0.63,0.96c-0.28,0.42-0.55,0.86-0.82,1.3c-0.22,0.36-0.44,0.73-0.65,1.1
				c-0.17,0.28-0.34,0.57-0.49,0.86c-0.28,0.47-0.54,0.95-0.79,1.44c-0.2,0.35-0.39,0.71-0.56,1.07c-0.18,0.33-0.35,0.67-0.52,1.02
				c-0.04,0.08-0.09,0.17-0.13,0.26c-0.26,0.53-0.52,1.08-0.77,1.63c-0.28,0.6-0.55,1.2-0.81,1.81c-0.26,0.6-0.52,1.22-0.77,1.84
				c-0.24,0.58-0.47,1.17-0.7,1.77c-0.01,0.03-0.03,0.07-0.04,0.1c-1.23-0.1-2.47-0.16-3.72-0.16c-0.17-0.01-0.34-0.01-0.51-0.01
				c-28.44,0-51.5,23.06-51.5,51.5c0,27.38,21.38,49.78,48.35,51.4c1.04,0.07,2.09,0.1,3.15,0.1h27.63l-2.13,6c0,0-1.57,0-5.89,0
				H203C-11,228,39,480,39,480h51l33-57c0,0,58,0,156,0s156-74,172-144S384,58,370,39C358.92,23.96,341.44,22.39,334.64,22.39
				L334.64,22.39z"/>
		</g>
		<path class="st11" d="M237.5,176.5c0,23,17,37,48,37c34,0,30-27,30-27"/>
		<path class="st1" d="M426.5,432.5c-30.1,41.96-46.89,1.11-49.61-19.66c-0.26-1.99-0.39-3.81-0.39-5.34c0-18-62-14-87-39
			c-20-20-23-41-23-65c0,0,88-54,90.59-20.55c2.59,33.45,69.41,75.55,69.41,75.55s3.14,2.67,6.53,7.71
			C440.58,377.5,449.32,400.7,426.5,432.5z"/>
		<path class="st1" d="M426.5,431.5c-30.1,41.96-46.89,1.11-49.61-19.66c-0.26-1.99-0.39-3.81-0.39-5.34c0-18-62-14-87-39
			c-20-20-23-41-23-65c0,0,88-54,90.59-20.55c2.59,33.45,69.41,75.55,69.41,75.55s3.14,2.67,6.53,7.71
			C440.58,376.5,449.32,399.7,426.5,431.5z"/>
		<path class="st2" d="M425.5,430.5c-30.1,41.96-46.89,1.11-49.61-19.66c15.5-0.61,45.75-7.04,56.14-46.63
			C439.58,375.5,448.32,398.7,425.5,430.5z"/>
		<path class="st12" d="M285,103c0,42-1.5,74.5,59.61,75.46c52.93,0.83,33.89,64.04,28.17,78.74c-4.38,11.26-27.28,39.3,58.72,107.3
			c0,0,33,28,0,74S375,427.49,375,410c0-18-50.11-17.43-80.5-35.5c-27.21-16.18-31.91-45.21-29.5-70.5"/>
		<path class="st13" d="M53.83,416.92C73,416,103,400.29,124,352l143-1"/>
		<path class="st14" d="M424,435c-36.24,43.49-55.5-10.01-55.5-27.5c0-18-62-14-87-39c-20-20-23-41-23-65"/>
		<path class="st13" d="M289.5,87.5c0,42-12,84,49.11,84.96c52.93,0.83,33.89,64.04,28.17,78.74c-4.38,11.26-27.28,39.3,58.72,107.3
			c0,0,33,28,0,74s-50-7.51-50-25c0-18-62-14-87-39c-20-20-23-41-23-65"/>
		<path class="st15" d="M341.5,90V57.51c0-1.61,1.98-2.38,3.06-1.18c6.87,7.61,22.94,26.2,22.94,33.67"/>
	</g>
</g>
<g id="Layer_1" class="st17">
	<g class="st18">
		<path d="M437.71,151.71h8.36v0.4c0,3.55,1.25,6.02,3.75,7.42c2.5,1.4,5.83,2.1,9.99,2.1c3.63,0,6.68-1.06,9.15-3.19
			c2.47-2.12,3.7-4.92,3.7-8.37c0-2.82-1.06-5.12-3.17-6.9c-2.14-1.76-5.36-3.52-9.68-5.29l-3.34-1.35
			c-4.54-1.87-7.93-3.73-10.17-5.57c-2.25-1.84-3.92-3.87-5.02-6.09c-1.1-2.22-1.65-4.71-1.65-7.46c0-4.84,1.71-8.94,5.14-12.27
			c3.42-3.34,8.78-5,16.07-5c6.69,0,11.41,1.24,14.14,3.72c2.73,2.48,4.1,5.37,4.1,8.67v0.43h-8.36v-0.43c0-1.04-0.42-2.08-1.26-3.1
			c-0.84-1.03-2.1-1.77-3.78-2.22c-1.68-0.45-3.53-0.68-5.53-0.68c-4.1,0-7.13,1.02-9.1,3.07c-1.97,2.05-2.96,4.38-2.96,7.01
			c0,1.76,0.47,3.42,1.4,4.97c0.94,1.55,2.22,2.84,3.86,3.87c1.64,1.02,4.4,2.39,8.27,4.08l3.93,1.72
			c6.28,2.71,10.47,5.57,12.58,8.59c2.09,3,3.14,6.22,3.14,9.68c0,3.24-0.85,6.36-2.56,9.37c-1.71,3.01-4.07,5.29-7.1,6.86
			c-3.03,1.56-7.06,2.35-12.11,2.35c-4.78,0-8.77-0.57-11.97-1.72s-5.64-3.03-7.32-5.65c-1.67-2.62-2.51-5.48-2.51-8.59V151.71z"/>
	</g>
</g>
</svg>
